<svg width="288" height="108" viewBox="0 0 288 108" fill="none" xmlns="http://www.w3.org/2000/svg">
<path d="M0 69.4232L43.4822 1.45435H74.647V69.2748H87.3948V88.7008H74.647V106.376H51.0063V88.7008H0V69.4232ZM51.4515 69.2896V27.6921H50.5759L24.635 68.414V69.2896H51.4515Z" fill="#DBDBDB"/>
<path d="M99.5635 53.915C99.5635 19.5002 116.229 0 143.476 0C170.723 0 187.463 19.6338 187.389 53.915C187.463 88.404 170.723 107.83 143.476 107.83C116.229 107.83 99.5635 88.3446 99.5635 53.915ZM143.476 87.6916C154.636 87.6916 162.101 77.1847 162.027 53.9298C162.027 31.0312 154.636 20.0938 143.476 20.0196C132.39 20.0938 125 31.0312 124.926 53.9298C124.851 77.1847 132.316 87.6916 143.476 87.6916Z" fill="#DBDBDB"/>
<path d="M200.285 69.4232L243.767 1.45435H274.932V69.2748H287.68V88.7008H274.932V106.376H251.306V88.7008H200.285V69.4232ZM251.737 69.2896V27.6921H250.861L224.92 68.414V69.2896H251.737Z" fill="#DBDBDB"/>
<path d="M133.704 83.4684V83.4903C134.451 83.4901 135.199 83.4897 135.947 83.4892C138.692 83.4874 141.437 83.4856 144.184 83.4998L144.186 83.4998C144.502 83.5027 144.74 83.4767 144.943 83.4047C145.136 83.336 145.326 83.2155 145.526 82.9835C147.283 80.9348 149.206 79.0369 151.11 77.1577C151.993 76.2865 152.872 75.4193 153.728 74.5428L154.086 74.8923L153.728 74.5428C156.827 71.3717 159.919 68.189 163.012 65.0057C167.203 60.6919 171.396 56.377 175.606 52.0885L175.606 52.0883C176.004 51.6828 176.274 51.3065 176.406 50.9392C176.531 50.5886 176.541 50.2221 176.376 49.7967C176.21 49.3728 175.951 49.165 175.618 49.046C175.252 48.9148 174.792 48.8901 174.235 48.8917C170.962 48.9117 167.688 48.9113 164.417 48.9109L164.236 48.9109C160.903 48.9105 157.572 48.9105 154.242 48.9325L154.242 48.9325C152.961 48.9392 151.825 48.6366 150.738 47.9488M133.704 83.4684L114.277 25.0913C117.434 27.0711 120.593 29.0454 123.752 31.0195L123.752 31.0195L123.753 31.0197C126.911 32.9938 130.07 34.9677 133.226 36.947L133.226 36.9471C139.066 40.6049 144.907 44.2753 150.738 47.9488M133.704 83.4684H133.204M133.704 83.4684H133.204M150.738 47.9488C150.737 47.9486 150.737 47.9485 150.737 47.9483L151.004 47.5258L150.738 47.9488C150.738 47.9488 150.738 47.9488 150.738 47.9488ZM133.204 83.4684C132.243 83.4684 131.282 83.4675 130.32 83.4666C127.677 83.4642 125.033 83.4617 122.386 83.4778L122.385 83.4778M133.204 83.4684L122.385 83.4778M122.385 83.4778C121.865 83.4825 121.439 83.4477 121.113 83.312C120.823 83.191 120.592 82.9824 120.462 82.5482L120.462 82.5481M122.385 83.4778L120.462 82.5481M120.462 82.5481C120.208 81.699 120.527 80.9983 121.316 80.225L121.316 80.2247M120.462 82.5481L121.316 80.2247M121.316 80.2247C123.43 78.1489 125.522 76.0522 127.612 73.9576L127.67 73.8998C129.741 71.8238 131.81 69.7501 133.898 67.6974L133.899 67.6967M121.316 80.2247L133.899 67.6967M133.899 67.6967C134.366 67.2354 134.6 66.7544 134.583 66.2234C134.566 65.7324 134.333 65.2858 134.1 64.8953M133.899 67.6967L134.1 64.8953M134.1 64.8953C132.539 62.2727 130.985 59.645 129.43 57.0154C128.891 56.1037 128.352 55.1918 127.812 54.2798C126.846 52.6415 125.88 51.003 124.914 49.3645C120.629 42.0962 116.344 34.8278 112.042 27.5721C111.746 27.0709 111.555 26.6209 111.51 26.2081C111.468 25.8186 111.553 25.437 111.869 25.0379L134.1 64.8953ZM111.869 25.0379C112.242 24.5678 112.585 24.4734 112.918 24.5057C113.309 24.5436 113.755 24.7636 114.277 25.0912L111.869 25.0379Z" fill="#DBDBDB" stroke="white"/>
</svg>
