<svg width="50" height="50" viewBox="0 0 50 50" fill="none" xmlns="http://www.w3.org/2000/svg">
<circle cx="25" cy="25" r="25" fill="#4D82D4"/>
<path d="M25.033 9.88486C34.014 9.88486 39.2266 18.6953 34.7409 26.5631C32.6271 30.2855 30.0447 33.7385 27.6249 37.278C25.9225 39.7692 24.1052 39.7788 22.4123 37.2684C19.9256 33.5846 17.171 30.0354 15.086 26.1207C10.9255 18.3106 16.2146 9.88486 25.033 9.88486Z" fill="white"/>
<path d="M20.8628 20.5516C21.1975 18.099 22.7661 16.7812 25.0137 16.8293C27.4718 16.8774 29.2603 18.2528 29.0882 21.0133C28.9352 23.4372 27.3379 24.7645 25.0137 24.7357C22.4314 24.7164 21.0254 23.1775 20.8628 20.5516Z" fill="#4D82D4"/>
</svg>
