<svg width="20" height="26" viewBox="0 0 20 26" fill="none" xmlns="http://www.w3.org/2000/svg">
<g clip-path="url(#clip0_795_3272)">
<path d="M10.0275 0.742142C17.5116 0.742142 21.8554 8.13154 18.1174 14.7304C16.3559 17.8523 14.2039 20.7484 12.1874 23.7171C10.7687 25.8064 9.25432 25.8145 7.84357 23.709C5.77128 20.6193 3.47582 17.6426 1.73828 14.3593C-1.72882 7.80886 2.67879 0.742142 10.0275 0.742142Z" fill="#4D82D3"/>
<path d="M6.55225 9.68847C6.83121 7.63138 8.13834 6.5262 10.0114 6.56653C12.0598 6.60687 13.5502 7.76045 13.4067 10.0757C13.2792 12.1086 11.9482 13.2218 10.0114 13.1976C7.85938 13.1815 6.68774 11.8908 6.55225 9.68847Z" fill="white"/>
</g>
<defs>
<clipPath id="clip0_795_3272">
<rect width="20" height="26" fill="white"/>
</clipPath>
</defs>
</svg>
