<svg width="101" height="92" viewBox="0 0 101 92" fill="none" xmlns="http://www.w3.org/2000/svg">
<path d="M33.9784 91.9515C28.4585 91.9515 22.9482 91.9323 17.4284 91.966C15.8151 91.9804 14.2783 91.7735 13.7469 89.9937C13.2394 88.2955 13.9528 86.939 15.2501 85.6642C21.7131 79.3047 28.0468 72.8154 34.505 66.4559C35.7306 65.2437 35.4002 64.2864 34.6917 63.0982C31.4746 57.6816 28.2766 52.2506 25.0691 46.8195C17.031 33.1625 9.00261 19.5008 0.935878 5.86784C-0.0120236 4.26113 -0.490762 2.65924 0.73002 1.11507C2.16145 -0.693669 3.81309 0.0134726 5.42165 1.02368C15.0826 7.09451 24.7579 13.1317 34.4188 19.2025C43.3568 24.8115 52.2949 30.4398 61.2186 36.0729C62.7505 37.0446 64.3447 37.4727 66.1687 37.4631C76.3658 37.3958 86.5677 37.4631 96.7649 37.4006C98.4644 37.3958 100.078 37.5305 100.758 39.2767C101.399 40.9267 100.705 42.288 99.4123 43.6061C88.2146 55.0358 77.1079 66.5762 65.9341 78.0348C61.7547 82.3209 57.3312 86.3665 53.4151 90.9413C52.6444 91.8361 51.8209 92.0093 50.7773 91.9996C45.1761 91.9708 39.5796 91.9852 33.9784 91.9852C33.9784 91.9708 33.9784 91.9611 33.9784 91.9515Z" fill="#DBDBDB"/>
</svg>
