<svg width="228" height="228" viewBox="0 0 228 228" fill="none" xmlns="http://www.w3.org/2000/svg">
<path d="M95.1977 158.65C86.4349 158.65 77.6873 158.62 68.9245 158.673C66.3633 158.696 63.9237 158.369 63.0801 155.557C62.2745 152.874 63.4069 150.731 65.4665 148.717C75.7265 138.67 85.7813 128.417 96.0337 118.37C97.9793 116.455 97.4549 114.942 96.3301 113.065C91.2229 104.508 86.1461 95.9272 81.0541 87.3468C68.2937 65.7704 55.5485 44.1864 42.7425 22.648C41.2377 20.1096 40.4777 17.5788 42.4157 15.1392C44.6881 12.2816 47.3101 13.3988 49.8637 14.9948C65.2005 24.586 80.5601 34.124 95.8969 43.7152C110.086 52.5768 124.275 61.4688 138.442 70.3684C140.874 71.9036 143.405 72.58 146.3 72.5648C162.488 72.4584 178.684 72.5648 194.872 72.466C197.57 72.4584 200.131 72.6712 201.21 75.43C202.229 78.0368 201.127 80.1876 199.075 82.27C181.298 100.328 163.666 118.56 145.928 136.663C139.293 143.435 132.271 149.826 126.054 157.054C124.83 158.468 123.523 158.741 121.866 158.726C112.974 158.68 104.09 158.703 95.1977 158.703C95.1977 158.68 95.1977 158.665 95.1977 158.65Z" fill="#4D81D3"/>
<path d="M33.5466 193.694H27.0942V209.92C27.1246 212.139 28.2342 212.823 30.0886 212.853C31.0006 212.922 32.7638 212.823 34.0026 212.724V221.13C32.931 221.289 31.0994 221.487 28.5306 221.517C20.7406 221.487 16.0818 218.295 16.1502 211.158V193.694H11.3926V185.615H16.1502V177.141H27.1018V185.615H33.5542V193.694H33.5466Z" fill="#4D81D3"/>
<path d="M39.2163 185.607H49.9019V191.991H50.2287C51.5359 187.363 54.6595 185.113 58.5735 185.083C59.5843 185.113 60.7927 185.28 61.7047 185.47V195.046C60.6635 194.72 58.6723 194.492 57.3347 194.522C53.2307 194.492 50.1983 197.357 50.2287 201.628V220.985H39.2163V185.607Z" fill="#4D81D3"/>
<path d="M71.6681 170.818C74.8297 170.787 77.3681 173.166 77.4061 176.1C77.3757 179.033 74.8297 181.382 71.6681 181.382C68.5369 181.382 65.9985 179.033 65.9985 176.1C65.9985 173.166 68.5445 170.787 71.6681 170.818ZM66.1353 185.607H77.1477V220.993H66.1353V185.607Z" fill="#4D81D3"/>
<path d="M84.2464 173.812H103.535C114.16 173.812 120.711 180.424 120.673 190.038C120.704 199.781 114.023 206.203 103.208 206.203H95.3196V221H84.2388V173.812H84.2464ZM101.194 197.402C106.438 197.433 109.212 194.499 109.212 190.038C109.212 185.638 106.446 182.803 101.194 182.803H95.3272V197.402H101.194Z" fill="#4D81D3"/>
<path d="M137.234 221H126.221V173.812H137.234V221Z" fill="#4D81D3"/>
<path d="M167.079 185.607H178.03V220.993H167.603V214.472H167.216C165.65 218.743 161.706 221.449 156.401 221.449C149.166 221.449 144.309 216.205 144.279 208.156V185.607H155.291V206.074C155.291 209.95 157.442 212.329 160.961 212.329C164.35 212.329 167.117 210.018 167.086 205.747V185.607H167.079Z" fill="#4D81D3"/>
<path d="M200.192 192.713C197.456 192.713 195.336 193.922 195.366 195.776C195.336 197.114 196.377 198.254 199.409 198.839L206.12 200.146C213.158 201.514 216.547 204.577 216.616 209.73C216.547 216.965 209.905 221.654 200.321 221.654C190.19 221.654 184.323 217.155 183.571 210.117H194.522C194.948 212.656 197.099 213.993 200.39 214.031C203.354 214.001 205.406 212.861 205.474 210.9C205.406 209.304 204.038 208.362 200.975 207.708L194.918 206.598C187.941 205.291 184.422 201.772 184.49 196.369C184.422 189.362 190.456 185.159 200.002 185.159C209.517 185.159 215.316 189.491 215.772 196.566H205.542C205.238 194.21 203.088 192.713 200.192 192.713Z" fill="#4D81D3"/>
<path d="M33.5466 193.694H27.0942V209.92C27.1246 212.139 28.2342 212.823 30.0886 212.853C31.0006 212.922 32.7638 212.823 34.0026 212.724V221.13C32.931 221.289 31.0994 221.487 28.5306 221.517C20.7406 221.487 16.0818 218.295 16.1502 211.158V193.694H11.3926V185.615H16.1502V177.141H27.1018V185.615H33.5542V193.694H33.5466Z" fill="#4D81D3"/>
<path d="M39.2163 185.607H49.9019V191.991H50.2287C51.5359 187.363 54.6595 185.113 58.5735 185.083C59.5843 185.113 60.7927 185.28 61.7047 185.47V195.046C60.6635 194.72 58.6723 194.492 57.3347 194.522C53.2307 194.492 50.1983 197.357 50.2287 201.628V220.985H39.2163V185.607Z" fill="#4D81D3"/>
<path d="M71.6681 170.818C74.8297 170.787 77.3681 173.166 77.4061 176.1C77.3757 179.033 74.8297 181.382 71.6681 181.382C68.5369 181.382 65.9985 179.033 65.9985 176.1C65.9985 173.166 68.5445 170.787 71.6681 170.818ZM66.1353 185.607H77.1477V220.993H66.1353V185.607Z" fill="#4D81D3"/>
<path d="M84.2464 173.812H103.535C114.16 173.812 120.711 180.424 120.673 190.038C120.704 199.781 114.023 206.203 103.208 206.203H95.3196V221H84.2388V173.812H84.2464ZM101.194 197.402C106.438 197.433 109.212 194.499 109.212 190.038C109.212 185.638 106.446 182.803 101.194 182.803H95.3272V197.402H101.194Z" fill="#4D81D3"/>
<path d="M137.234 221H126.221V173.812H137.234V221Z" fill="#4D81D3"/>
<path d="M167.079 185.607H178.03V220.993H167.603V214.472H167.216C165.65 218.743 161.706 221.449 156.401 221.449C149.166 221.449 144.309 216.205 144.279 208.156V185.607H155.291V206.074C155.291 209.95 157.442 212.329 160.961 212.329C164.35 212.329 167.117 210.018 167.086 205.747V185.607H167.079Z" fill="#4D81D3"/>
<path d="M200.192 192.713C197.456 192.713 195.336 193.922 195.366 195.776C195.336 197.114 196.377 198.254 199.409 198.839L206.12 200.146C213.158 201.514 216.547 204.577 216.616 209.73C216.547 216.965 209.905 221.654 200.321 221.654C190.19 221.654 184.323 217.155 183.571 210.117H194.522C194.948 212.656 197.099 213.993 200.39 214.031C203.354 214.001 205.406 212.861 205.474 210.9C205.406 209.304 204.038 208.362 200.975 207.708L194.918 206.598C187.941 205.291 184.422 201.772 184.49 196.369C184.422 189.362 190.456 185.159 200.002 185.159C209.517 185.159 215.316 189.491 215.772 196.566H205.542C205.238 194.21 203.088 192.713 200.192 192.713Z" fill="#4D81D3"/>
</svg>
