<svg width="206" height="209" viewBox="0 0 206 209" fill="none" xmlns="http://www.w3.org/2000/svg">
<path d="M83.8052 145.272C75.0424 145.272 66.2948 145.242 57.532 145.295C54.9708 145.318 52.5312 144.991 51.6876 142.179C50.882 139.496 52.0144 137.353 54.074 135.339C64.334 125.292 74.3888 115.04 84.6412 104.992C86.5868 103.077 86.0624 101.565 84.9376 99.6877C79.8304 91.1301 74.7536 82.5497 69.6616 73.9693C56.9012 52.3929 44.156 30.8089 31.35 9.27048C29.8452 6.73209 29.0852 4.20129 31.0232 1.76169C33.2956 -1.09591 35.9176 0.0212852 38.4712 1.61729C53.808 11.2085 69.1676 20.7465 84.5044 30.3377C98.6936 39.1993 112.883 48.0913 127.049 56.9909C129.481 58.5261 132.012 59.2025 134.908 59.1873C151.096 59.0809 167.291 59.1873 183.479 59.0885C186.177 59.0809 188.738 59.2937 189.818 62.0525C190.836 64.6593 189.734 66.8101 187.682 68.8925C169.906 86.9501 152.274 105.182 134.535 123.286C127.9 130.057 120.878 136.449 114.661 143.676C113.438 145.09 112.13 145.364 110.474 145.348C101.582 145.303 92.6972 145.326 83.8052 145.326C83.8052 145.303 83.8052 145.288 83.8052 145.272Z" fill="white"/>
<path d="M22.154 180.316H15.7016V196.542C15.732 198.761 16.8416 199.445 18.696 199.476C19.608 199.544 21.3712 199.445 22.61 199.347V207.752C21.5384 207.912 19.7068 208.109 17.138 208.14C9.348 208.109 4.6892 204.917 4.7576 197.781V180.316H0V172.237H4.7576V163.763H15.7092V172.237H22.1616V180.316H22.154Z" fill="white"/>
<path d="M27.8237 172.23H38.5093V178.614H38.8361C40.1433 173.985 43.2669 171.736 47.1809 171.705C48.1917 171.736 49.4001 171.903 50.3121 172.093V181.669C49.2709 181.342 47.2797 181.114 45.9421 181.145C41.8381 181.114 38.8057 183.979 38.8361 188.251V207.608H27.8237V172.23Z" fill="white"/>
<path d="M60.2756 157.44C63.4372 157.41 65.9756 159.789 66.0136 162.722C65.9832 165.656 63.4372 168.004 60.2756 168.004C57.1444 168.004 54.606 165.656 54.606 162.722C54.606 159.789 57.152 157.41 60.2756 157.44ZM54.7428 172.23H65.7552V207.615H54.7428V172.23Z" fill="white"/>
<path d="M72.8538 160.435H92.1426C102.767 160.435 109.319 167.047 109.281 176.661C109.311 186.404 102.631 192.826 91.8158 192.826H83.927V207.623H72.8462V160.435H72.8538ZM89.8018 184.025C95.0458 184.055 97.8198 181.122 97.8198 176.661C97.8198 172.26 95.0534 169.425 89.8018 169.425H83.9346V184.025H89.8018Z" fill="white"/>
<path d="M125.841 207.623H114.829V160.435H125.841V207.623Z" fill="white"/>
<path d="M155.686 172.23H166.638V207.615H156.211V201.095H155.823C154.257 205.366 150.313 208.071 145.008 208.071C137.773 208.071 132.917 202.827 132.886 194.779V172.23H143.899V192.697C143.899 196.573 146.049 198.951 149.568 198.951C152.958 198.951 155.724 196.641 155.694 192.37V172.23H155.686Z" fill="white"/>
<path d="M188.799 179.336C186.063 179.336 183.943 180.544 183.973 182.399C183.943 183.736 184.984 184.876 188.017 185.461L194.727 186.769C201.765 188.137 205.155 191.199 205.223 196.352C205.155 203.587 198.512 208.277 188.929 208.277C178.798 208.277 172.931 203.777 172.178 196.74H183.13C183.555 199.278 185.706 200.616 188.997 200.654C191.961 200.623 194.013 199.483 194.081 197.523C194.013 195.927 192.645 194.984 189.582 194.33L183.525 193.221C176.548 191.914 173.029 188.395 173.098 182.991C173.029 175.984 179.064 171.781 188.609 171.781C198.125 171.781 203.923 176.113 204.379 183.189H194.15C193.846 180.833 191.695 179.336 188.799 179.336Z" fill="white"/>
<path d="M22.154 180.316H15.7016V196.542C15.732 198.761 16.8416 199.445 18.696 199.476C19.608 199.544 21.3712 199.445 22.61 199.347V207.752C21.5384 207.912 19.7068 208.109 17.138 208.14C9.348 208.109 4.6892 204.917 4.7576 197.781V180.316H0V172.237H4.7576V163.763H15.7092V172.237H22.1616V180.316H22.154Z" fill="white"/>
<path d="M27.8237 172.23H38.5093V178.614H38.8361C40.1433 173.985 43.2669 171.736 47.1809 171.705C48.1917 171.736 49.4001 171.903 50.3121 172.093V181.669C49.2709 181.342 47.2797 181.114 45.9421 181.145C41.8381 181.114 38.8057 183.979 38.8361 188.251V207.608H27.8237V172.23Z" fill="white"/>
<path d="M60.2756 157.44C63.4372 157.41 65.9756 159.789 66.0136 162.722C65.9832 165.656 63.4372 168.004 60.2756 168.004C57.1444 168.004 54.606 165.656 54.606 162.722C54.606 159.789 57.152 157.41 60.2756 157.44ZM54.7428 172.23H65.7552V207.615H54.7428V172.23Z" fill="white"/>
<path d="M72.8538 160.435H92.1426C102.767 160.435 109.319 167.047 109.281 176.661C109.311 186.404 102.631 192.826 91.8158 192.826H83.927V207.623H72.8462V160.435H72.8538ZM89.8018 184.025C95.0458 184.055 97.8198 181.122 97.8198 176.661C97.8198 172.26 95.0534 169.425 89.8018 169.425H83.9346V184.025H89.8018Z" fill="white"/>
<path d="M125.841 207.623H114.829V160.435H125.841V207.623Z" fill="white"/>
<path d="M155.686 172.23H166.638V207.615H156.211V201.095H155.823C154.257 205.366 150.313 208.071 145.008 208.071C137.773 208.071 132.917 202.827 132.886 194.779V172.23H143.899V192.697C143.899 196.573 146.049 198.951 149.568 198.951C152.958 198.951 155.724 196.641 155.694 192.37V172.23H155.686Z" fill="white"/>
<path d="M188.799 179.336C186.063 179.336 183.943 180.544 183.973 182.399C183.943 183.736 184.984 184.876 188.017 185.461L194.727 186.769C201.765 188.137 205.155 191.199 205.223 196.352C205.155 203.587 198.512 208.277 188.929 208.277C178.798 208.277 172.931 203.777 172.178 196.74H183.13C183.555 199.278 185.706 200.616 188.997 200.654C191.961 200.623 194.013 199.483 194.081 197.523C194.013 195.927 192.645 194.984 189.582 194.33L183.525 193.221C176.548 191.914 173.029 188.395 173.098 182.991C173.029 175.984 179.064 171.781 188.609 171.781C198.125 171.781 203.923 176.113 204.379 183.189H194.15C193.846 180.833 191.695 179.336 188.799 179.336Z" fill="white"/>
</svg>
