<svg width="36" height="36" viewBox="0 0 36 36" fill="none" xmlns="http://www.w3.org/2000/svg">
<path d="M0 18.8193C0 18.2207 0 17.6188 0 17.0202C0.0817959 16.8402 0.0229019 16.6472 0.042533 16.4608C0.0392611 14.2494 0.667455 12.1853 1.61629 10.2258C3.63828 6.04845 6.79887 3.04219 11.0784 1.23975C12.7929 0.516807 14.5728 0.0326633 16.4606 0.0522907C16.6733 0.0293921 16.8892 0.10136 17.0953 0.00976562C17.7235 0.00976562 18.3484 0.00976562 18.9766 0.00976562C19.1566 0.0915463 19.3496 0.0326633 19.5361 0.0522907C21.7479 0.0490195 23.8124 0.677097 25.7722 1.62575C29.9504 3.64737 32.9572 6.80738 34.76 11.0861C35.4831 12.8003 35.9673 14.5798 35.9476 16.4673C35.9706 16.6799 35.8986 16.8958 35.9902 17.1019C35.9902 17.73 35.9902 18.3548 35.9902 18.9829C35.9084 19.1628 35.9673 19.3558 35.9476 19.5423C35.9509 21.7536 35.326 23.8178 34.3739 25.7772C32.3519 29.9513 29.188 32.9576 24.9118 34.7633C23.1973 35.4862 21.4174 35.9704 19.5296 35.9507C19.3169 35.9736 19.101 35.9017 18.8948 35.9933C18.2667 35.9933 17.6417 35.9933 17.0135 35.9933C16.8336 35.9115 16.6406 35.9704 16.4541 35.9507C14.2521 35.9573 12.1974 35.3325 10.2441 34.3904C6.0987 32.3949 3.1017 29.2709 1.28256 25.0412C0.559483 23.3533 0.0621658 21.6031 0.0392629 19.7451C0.0392629 19.7026 0.0261747 19.6666 0 19.6339C0 19.5521 0 19.4703 0 19.3885C0.0654367 19.2021 0.0654367 19.0091 0 18.8193Z" fill="#DADADA"/>
<path d="M16.438 0.0882744C16.4413 0.0621046 16.4413 0.0359354 16.4413 0.00976562C16.6605 0.00976562 16.8764 0.00976562 17.0956 0.00976562C16.8928 0.160242 16.6572 0.0653758 16.438 0.0882744Z" fill="#EEEEEE"/>
<path d="M35.9116 16.4445C35.9378 16.4445 35.964 16.4477 35.9901 16.4477C35.9901 16.6669 35.9901 16.8828 35.9901 17.102C35.8396 16.8992 35.9345 16.6636 35.9116 16.4445Z" fill="#EEEEEE"/>
<path d="M19.5527 35.9148C19.5494 35.9409 19.5494 35.9671 19.5494 35.9933C19.3302 35.9933 19.1142 35.9933 18.895 35.9933C19.0979 35.8428 19.3334 35.9377 19.5527 35.9148Z" fill="#EDEDED"/>
<path d="M19.5491 0.00976562C19.5491 0.0359354 19.5491 0.0621046 19.5524 0.0882744C19.3594 0.068647 19.1532 0.1537 18.9766 0.00976562C19.1663 0.00976562 19.3594 0.00976562 19.5491 0.00976562Z" fill="#EEEEEE"/>
<path d="M0 16.4477C0.0261747 16.4477 0.0523487 16.4477 0.0785233 16.4445C0.0621642 16.6375 0.143961 16.8435 0 17.0202C0 16.8305 0 16.6375 0 16.4477Z" fill="#EEEEEE"/>
<path d="M0 18.8193C0.12433 19.0091 0.127602 19.2021 0 19.3918C0 19.2021 0 19.0091 0 18.8193Z" fill="#EAEAEA"/>
<path d="M35.9902 19.5554C35.964 19.5554 35.9379 19.5554 35.9117 19.5586C35.9313 19.3656 35.8463 19.1596 35.9902 18.9829C35.9902 19.1726 35.9902 19.3656 35.9902 19.5554Z" fill="#EEEEEE"/>
<path d="M16.4413 35.9933C16.4413 35.9671 16.4413 35.9409 16.438 35.9147C16.631 35.9344 16.8372 35.8493 17.0138 35.9933C16.8241 35.9933 16.631 35.9933 16.4413 35.9933Z" fill="#EEEEEE"/>
<path d="M17.8806 35.6727C13.9053 35.6106 10.3259 34.3871 7.1653 31.9664C7.04097 31.8715 6.95918 31.7799 6.98535 31.5935C7.28636 29.4116 8.01925 27.3998 9.36398 25.6366C10.1034 24.665 10.9803 23.8309 12.0698 23.2584C12.3283 23.121 12.3184 23.0621 12.0927 22.892C10.64 21.7994 9.63554 20.3895 9.23965 18.6002C8.7685 16.4739 9.26582 14.5438 10.604 12.8494C12.2007 10.8245 14.3764 9.80057 16.8859 9.51597C19.3725 9.23137 21.7053 9.76785 23.7731 11.2268C25.5432 12.4764 26.7047 14.1513 26.9697 16.3267C27.2216 18.4104 26.5706 20.2489 25.1768 21.8158C24.8169 22.2214 24.4177 22.5976 23.9793 22.9215C23.8124 23.0458 23.7928 23.1308 23.9891 23.242C26.5836 24.7337 27.984 27.089 28.7594 29.8859C28.8968 30.3831 28.995 30.8902 29.0702 31.4005C29.1095 31.6687 29.0342 31.8061 28.8478 31.9501C26.3055 33.8866 23.4689 35.1133 20.2854 35.5091C19.4838 35.6106 18.6887 35.6825 17.8806 35.6727Z" fill="#FEFEFE"/>
<path d="M18.1913 12.1952C19.7519 12.2541 21.2733 12.7513 22.497 13.9617C24.1951 15.6398 24.3652 18.1325 22.8961 20.0003C21.8492 21.3317 20.4292 21.9892 18.7605 22.179C17.105 22.3687 15.5869 22.0023 14.2552 21.0242C12.9072 20.0331 12.1024 18.6951 12.2103 16.9777C12.3183 15.2113 13.2966 13.942 14.7918 13.0653C15.7963 12.4765 16.8956 12.2017 18.1913 12.1952Z" fill="#DADADA"/>
<path d="M15.5411 17.1282C15.5477 16.8141 15.8225 16.5394 16.1431 16.5328C16.4474 16.5263 16.7452 16.8207 16.7517 17.1347C16.755 17.439 16.4572 17.7497 16.1562 17.7497C15.8225 17.753 15.5346 17.4619 15.5411 17.1282Z" fill="#FEFEFE"/>
<path d="M18.044 17.4455C18.3679 17.452 18.646 17.7268 18.646 18.0441C18.646 18.3745 18.3417 18.6656 18.0113 18.6525C17.7103 18.6395 17.4322 18.3647 17.4322 18.0768C17.4289 17.7366 17.7168 17.4422 18.044 17.4455Z" fill="#FDFDFD"/>
<path d="M19.9289 17.7529C19.6115 17.7529 19.3759 17.4814 19.3825 17.1248C19.389 16.7879 19.6573 16.5262 19.9779 16.5393C20.2953 16.5524 20.5276 16.7977 20.5341 17.1216C20.5407 17.4585 20.256 17.7529 19.9289 17.7529Z" fill="#FEFEFE"/>
<path d="M0 18.8193C0 18.2207 0 17.6188 0 17.0202C0.0817959 16.8402 0.0229019 16.6472 0.042533 16.4608C0.0392611 14.2494 0.667455 12.1853 1.61629 10.2258C3.63828 6.04845 6.79887 3.04219 11.0784 1.23975C12.7929 0.516807 14.5728 0.0326633 16.4606 0.0522907C16.6733 0.0293921 16.8892 0.10136 17.0953 0.00976562C17.7235 0.00976562 18.3484 0.00976562 18.9766 0.00976562C19.1566 0.0915463 19.3496 0.0326633 19.5361 0.0522907C21.7479 0.0490195 23.8124 0.677097 25.7722 1.62575C29.9504 3.64737 32.9572 6.80738 34.76 11.0861C35.4831 12.8003 35.9673 14.5798 35.9476 16.4673C35.9706 16.6799 35.8986 16.8958 35.9902 17.1019C35.9902 17.73 35.9902 18.3548 35.9902 18.9829C35.9084 19.1628 35.9673 19.3558 35.9476 19.5423C35.9509 21.7536 35.326 23.8178 34.3739 25.7772C32.3519 29.9513 29.188 32.9576 24.9118 34.7633C23.1973 35.4862 21.4174 35.9704 19.5296 35.9507C19.3169 35.9736 19.101 35.9017 18.8948 35.9933C18.2667 35.9933 17.6417 35.9933 17.0135 35.9933C16.8336 35.9115 16.6406 35.9704 16.4541 35.9507C14.2521 35.9573 12.1974 35.3325 10.2441 34.3904C6.0987 32.3949 3.1017 29.2709 1.28256 25.0412C0.559483 23.3533 0.0621658 21.6031 0.0392629 19.7451C0.0392629 19.7026 0.0261747 19.6666 0 19.6339C0 19.5521 0 19.4703 0 19.3885C0.0654367 19.2021 0.0654367 19.0091 0 18.8193Z" fill="#DADADA"/>
<path d="M16.438 0.0882744C16.4413 0.0621046 16.4413 0.0359354 16.4413 0.00976562C16.6605 0.00976562 16.8764 0.00976562 17.0956 0.00976562C16.8928 0.160242 16.6572 0.0653758 16.438 0.0882744Z" fill="#EEEEEE"/>
<path d="M35.9116 16.4445C35.9378 16.4445 35.964 16.4477 35.9901 16.4477C35.9901 16.6669 35.9901 16.8828 35.9901 17.102C35.8396 16.8992 35.9345 16.6636 35.9116 16.4445Z" fill="#EEEEEE"/>
<path d="M19.5527 35.9148C19.5494 35.9409 19.5494 35.9671 19.5494 35.9933C19.3302 35.9933 19.1142 35.9933 18.895 35.9933C19.0979 35.8428 19.3334 35.9377 19.5527 35.9148Z" fill="#EDEDED"/>
<path d="M19.5491 0.00976562C19.5491 0.0359354 19.5491 0.0621046 19.5524 0.0882744C19.3594 0.068647 19.1532 0.1537 18.9766 0.00976562C19.1663 0.00976562 19.3594 0.00976562 19.5491 0.00976562Z" fill="#EEEEEE"/>
<path d="M0 16.4477C0.0261747 16.4477 0.0523487 16.4477 0.0785233 16.4445C0.0621642 16.6375 0.143961 16.8435 0 17.0202C0 16.8305 0 16.6375 0 16.4477Z" fill="#EEEEEE"/>
<path d="M0 18.8193C0.12433 19.0091 0.127602 19.2021 0 19.3918C0 19.2021 0 19.0091 0 18.8193Z" fill="#EAEAEA"/>
<path d="M35.9902 19.5554C35.964 19.5554 35.9379 19.5554 35.9117 19.5586C35.9313 19.3656 35.8463 19.1596 35.9902 18.9829C35.9902 19.1726 35.9902 19.3656 35.9902 19.5554Z" fill="#EEEEEE"/>
<path d="M16.4413 35.9933C16.4413 35.9671 16.4413 35.9409 16.438 35.9147C16.631 35.9344 16.8372 35.8493 17.0138 35.9933C16.8241 35.9933 16.631 35.9933 16.4413 35.9933Z" fill="#EEEEEE"/>
<path d="M17.8806 35.6727C13.9053 35.6106 10.3259 34.3871 7.1653 31.9664C7.04097 31.8715 6.95918 31.7799 6.98535 31.5935C7.28636 29.4116 8.01925 27.3998 9.36398 25.6366C10.1034 24.665 10.9803 23.8309 12.0698 23.2584C12.3283 23.121 12.3184 23.0621 12.0927 22.892C10.64 21.7994 9.63554 20.3895 9.23965 18.6002C8.7685 16.4739 9.26582 14.5438 10.604 12.8494C12.2007 10.8245 14.3764 9.80057 16.8859 9.51597C19.3725 9.23137 21.7053 9.76785 23.7731 11.2268C25.5432 12.4764 26.7047 14.1513 26.9697 16.3267C27.2216 18.4104 26.5706 20.2489 25.1768 21.8158C24.8169 22.2214 24.4177 22.5976 23.9793 22.9215C23.8124 23.0458 23.7928 23.1308 23.9891 23.242C26.5836 24.7337 27.984 27.089 28.7594 29.8859C28.8968 30.3831 28.995 30.8902 29.0702 31.4005C29.1095 31.6687 29.0342 31.8061 28.8478 31.9501C26.3055 33.8866 23.4689 35.1133 20.2854 35.5091C19.4838 35.6106 18.6887 35.6825 17.8806 35.6727Z" fill="#FEFEFE"/>
<path d="M18.1913 12.1952C19.7519 12.2541 21.2733 12.7513 22.497 13.9617C24.1951 15.6398 24.3652 18.1325 22.8961 20.0003C21.8492 21.3317 20.4292 21.9892 18.7605 22.179C17.105 22.3687 15.5869 22.0023 14.2552 21.0242C12.9072 20.0331 12.1024 18.6951 12.2103 16.9777C12.3183 15.2113 13.2966 13.942 14.7918 13.0653C15.7963 12.4765 16.8956 12.2017 18.1913 12.1952Z" fill="#DADADA"/>
<path d="M15.5411 17.1282C15.5477 16.8141 15.8225 16.5394 16.1431 16.5328C16.4474 16.5263 16.7452 16.8207 16.7517 17.1347C16.755 17.439 16.4572 17.7497 16.1562 17.7497C15.8225 17.753 15.5346 17.4619 15.5411 17.1282Z" fill="#FEFEFE"/>
<path d="M18.044 17.4455C18.3679 17.452 18.646 17.7268 18.646 18.0441C18.646 18.3745 18.3417 18.6656 18.0113 18.6525C17.7103 18.6395 17.4322 18.3647 17.4322 18.0768C17.4289 17.7366 17.7168 17.4422 18.044 17.4455Z" fill="#FDFDFD"/>
<path d="M19.9289 17.7529C19.6115 17.7529 19.3759 17.4814 19.3825 17.1248C19.389 16.7879 19.6573 16.5262 19.9779 16.5393C20.2953 16.5524 20.5276 16.7977 20.5341 17.1216C20.5407 17.4585 20.256 17.7529 19.9289 17.7529Z" fill="#FEFEFE"/>
<path d="M17.5004 10.7195C17.0891 10.7195 16.6786 10.718 16.2673 10.7206C16.1471 10.7216 16.0326 10.7062 15.993 10.5733C15.9552 10.4465 16.0083 10.3452 16.105 10.25C16.5865 9.77515 17.0584 9.29059 17.5396 8.81574C17.6309 8.72522 17.6063 8.65374 17.5535 8.56502C17.3138 8.16056 17.0756 7.75503 16.8366 7.3495C16.2377 6.32974 15.6395 5.30962 15.0385 4.29166C14.9679 4.17169 14.9322 4.05208 15.0231 3.93678C15.1298 3.80172 15.2529 3.85452 15.3727 3.92995C16.0925 4.38326 16.8134 4.83405 17.5332 5.28735C18.1991 5.70618 18.8651 6.12644 19.53 6.54705C19.6441 6.61961 19.7629 6.65158 19.8988 6.65086C20.6585 6.64583 21.4187 6.65086 22.1784 6.64619C22.305 6.64583 22.4253 6.65589 22.4759 6.78628C22.5237 6.90948 22.472 7.01114 22.3757 7.10956C21.5414 7.963 20.7138 8.82472 19.8813 9.68032C19.5699 10.0004 19.2403 10.3024 18.9486 10.644C18.8911 10.7109 18.8298 10.7238 18.752 10.7231C18.3347 10.7209 17.9177 10.722 17.5004 10.722C17.5004 10.7209 17.5004 10.7195 17.5004 10.7195Z" fill="white"/>
</svg>
