<svg width="145" height="34" viewBox="0 0 145 34" fill="none" xmlns="http://www.w3.org/2000/svg">
<path d="M12.7839 33.9821C10.7072 33.9821 8.634 33.975 6.55722 33.9874C5.95022 33.9928 5.37204 33.9163 5.1721 33.2585C4.98118 32.631 5.24955 32.1296 5.73768 31.6585C8.16929 29.3083 10.5523 26.91 12.9821 24.5598C13.4432 24.1118 13.3189 23.758 13.0523 23.3189C11.8419 21.3171 10.6387 19.31 9.43192 17.3029C6.40772 12.2557 3.38712 7.2068 0.352112 2.16855C-0.00452372 1.57477 -0.184643 0.982763 0.274661 0.412093C0.813218 -0.256356 1.43463 0.00497901 2.03983 0.378315C5.67464 2.62188 9.31485 4.85301 12.9497 7.09658C16.3125 9.16948 19.6753 11.2495 23.0327 13.3313C23.6091 13.6904 24.2089 13.8486 24.8952 13.8451C28.7317 13.8202 32.57 13.8451 36.4066 13.822C37.046 13.8202 37.653 13.87 37.9088 14.5153C38.1501 15.1251 37.889 15.6282 37.4026 16.1153C33.1897 20.3393 29.0109 24.6042 24.8069 28.8389C23.2345 30.423 21.5702 31.9181 20.0968 33.6087C19.8068 33.9394 19.497 34.0034 19.1043 33.9999C16.9969 33.9892 14.8913 33.9945 12.7839 33.9945C12.7839 33.9892 12.7839 33.9856 12.7839 33.9821Z" fill="#4D81D3"/>
<path d="M55.7951 16.2499H52.651V24.2294C52.6658 25.3207 53.2065 25.6571 54.1101 25.6721C54.5545 25.7057 55.4137 25.6571 56.0173 25.6085V29.7421C55.4951 29.8206 54.6026 29.9178 53.3509 29.9328C49.5551 29.9178 47.2849 28.3481 47.3183 24.8386V16.2499H45V12.277H47.3183V8.10974H52.6547V12.277H55.7988V16.2499H55.7951Z" fill="#4D81D3"/>
<path d="M58.5576 12.2733H63.7644V15.4127H63.9237C64.5607 13.1366 66.0827 12.0303 67.9899 12.0154C68.4824 12.0303 69.0713 12.1126 69.5157 12.206V16.9152C69.0083 16.7545 68.038 16.6424 67.3863 16.6573C65.3865 16.6424 63.9089 18.0514 63.9237 20.1518V29.6711H58.5576V12.2733Z" fill="#4D81D3"/>
<path d="M74.3708 5.00014C75.9114 4.98519 77.1483 6.15502 77.1668 7.59768C77.152 9.04034 75.9114 10.1952 74.3708 10.1952C72.8451 10.1952 71.6082 9.04034 71.6082 7.59768C71.6082 6.15502 72.8488 4.98519 74.3708 5.00014ZM71.6748 12.2732H77.0409V29.6748H71.6748V12.2732Z" fill="#4D81D3"/>
<path d="M80.4998 6.47278H89.8988C95.076 6.47278 98.2682 9.72437 98.2497 14.4523C98.2645 19.2437 95.0093 22.4018 89.7395 22.4018H85.8955V29.6787H80.4961V6.47278H80.4998ZM88.7581 18.0738C91.3134 18.0888 92.6651 16.6461 92.6651 14.4523C92.6651 12.2883 91.3171 10.8942 88.7581 10.8942H85.8992V18.0738H88.7581Z" fill="#4D81D3"/>
<path d="M106.319 29.6787H100.953V6.47278H106.319V29.6787Z" fill="#4D81D3"/>
<path d="M120.862 12.2732H126.198V29.6748H121.117V26.4681H120.928C120.166 28.5685 118.244 29.899 115.659 29.899C112.133 29.899 109.767 27.3202 109.752 23.3622V12.2732H115.118V22.3382C115.118 24.2443 116.166 25.4141 117.881 25.4141C119.532 25.4141 120.88 24.2779 120.866 22.1775V12.2732H120.862Z" fill="#4D81D3"/>
<path d="M136.997 15.7678C135.664 15.7678 134.631 16.362 134.646 17.274C134.631 17.9318 135.138 18.4924 136.616 18.7802L139.886 19.423C143.315 20.0957 144.967 21.6019 145 24.1359C144.967 27.694 141.73 30 137.06 30C132.124 30 129.265 27.7874 128.898 24.3265H134.235C134.442 25.5749 135.49 26.2326 137.094 26.2513C138.538 26.2364 139.538 25.6758 139.571 24.7115C139.538 23.9266 138.871 23.4632 137.379 23.1418L134.427 22.5961C131.028 21.9533 129.313 20.2228 129.346 17.5655C129.313 14.1195 132.253 12.0527 136.905 12.0527C141.541 12.0527 144.367 14.1831 144.589 17.6627H139.604C139.456 16.5041 138.408 15.7678 136.997 15.7678Z" fill="#4D81D3"/>
</svg>
