<svg width="161" height="146" viewBox="0 0 161 146" fill="none" xmlns="http://www.w3.org/2000/svg">
<path d="M54.1977 145.65C45.4349 145.65 36.6873 145.62 27.9245 145.673C25.3633 145.696 22.9237 145.369 22.0801 142.557C21.2745 139.874 22.4069 137.731 24.4665 135.717C34.7265 125.67 44.7813 115.417 55.0337 105.37C56.9793 103.455 56.4549 101.942 55.3301 100.065C50.2229 91.5076 45.1461 82.9272 40.0541 74.3468C27.2937 52.7704 14.5485 31.1864 1.74255 9.64799C0.237749 7.10959 -0.522252 4.57879 1.41575 2.13919C3.68815 -0.718412 6.31015 0.398787 8.86375 1.99479C24.2005 11.586 39.5601 21.124 54.8969 30.7152C69.0861 39.5768 83.2754 48.4688 97.4417 57.3684C99.8737 58.9036 102.405 59.58 105.3 59.5648C121.488 59.4584 137.684 59.5648 153.872 59.466C156.57 59.4584 159.131 59.6712 160.21 62.43C161.229 65.0368 160.127 67.1876 158.075 69.27C140.298 87.3276 122.666 105.56 104.928 123.663C98.293 130.435 91.2705 136.826 85.0537 144.054C83.8301 145.468 82.5229 145.741 80.8661 145.726C71.9742 145.68 63.0897 145.703 54.1977 145.703C54.1977 145.68 54.1977 145.665 54.1977 145.65Z" fill="#4D81D3"/>
</svg>
