<svg width="111" height="111" viewBox="0 0 111 111" fill="none" xmlns="http://www.w3.org/2000/svg">
<path d="M0 57.53C0 55.7 0 53.86 0 52.03C0.25 51.48 0.0699973 50.89 0.129997 50.32C0.119997 43.56 2.04 37.25 4.94 31.26C11.12 18.49 20.78 9.30003 33.86 3.79003C39.1 1.58003 44.54 0.100027 50.31 0.160027C50.96 0.0900265 51.62 0.310029 52.25 0.0300293C54.17 0.0300293 56.08 0.0300293 58 0.0300293C58.55 0.280029 59.14 0.100027 59.71 0.160027C66.47 0.150027 72.78 2.07003 78.77 4.97003C91.54 11.15 100.73 20.81 106.24 33.89C108.45 39.13 109.93 44.57 109.87 50.34C109.94 50.99 109.72 51.65 110 52.28C110 54.2 110 56.11 110 58.03C109.75 58.58 109.93 59.17 109.87 59.74C109.88 66.5 107.97 72.81 105.06 78.8C98.88 91.56 89.21 100.75 76.14 106.27C70.9 108.48 65.46 109.96 59.69 109.9C59.04 109.97 58.38 109.75 57.75 110.03C55.83 110.03 53.92 110.03 52 110.03C51.45 109.78 50.86 109.96 50.29 109.9C43.56 109.92 37.28 108.01 31.31 105.13C18.64 99.03 9.48 89.48 3.92 76.55C1.71 71.39 0.190003 66.04 0.120003 60.36C0.120003 60.23 0.08 60.12 0 60.02C0 59.77 0 59.52 0 59.27C0.2 58.7 0.2 58.11 0 57.53Z" fill="#DADADA"/>
<path d="M50.2402 0.270027C50.2502 0.190027 50.2502 0.110029 50.2502 0.0300293C50.9202 0.0300293 51.5802 0.0300293 52.2502 0.0300293C51.6302 0.490029 50.9102 0.200027 50.2402 0.270027Z" fill="#EEEEEE"/>
<path d="M109.76 50.27C109.84 50.27 109.92 50.28 110 50.28C110 50.95 110 51.61 110 52.28C109.54 51.66 109.83 50.94 109.76 50.27Z" fill="#EEEEEE"/>
<path d="M59.76 109.79C59.75 109.87 59.75 109.95 59.75 110.03C59.08 110.03 58.42 110.03 57.75 110.03C58.37 109.57 59.09 109.86 59.76 109.79Z" fill="#EDEDED"/>
<path d="M59.75 0.0300293C59.75 0.110029 59.75 0.190027 59.76 0.270027C59.17 0.210027 58.54 0.470029 58 0.0300293C58.58 0.0300293 59.17 0.0300293 59.75 0.0300293Z" fill="#EEEEEE"/>
<path d="M0 50.28C0.08 50.28 0.159998 50.28 0.239998 50.27C0.189998 50.86 0.44 51.49 0 52.03C0 51.45 0 50.86 0 50.28Z" fill="#EEEEEE"/>
<path d="M0 57.53C0.38 58.11 0.39 58.7 0 59.28C0 58.7 0 58.11 0 57.53Z" fill="#EAEAEA"/>
<path d="M110 59.78C109.92 59.78 109.84 59.78 109.76 59.79C109.82 59.2 109.56 58.57 110 58.03C110 58.61 110 59.2 110 59.78Z" fill="#EEEEEE"/>
<path d="M50.2502 110.03C50.2502 109.95 50.2502 109.87 50.2402 109.79C50.8302 109.85 51.4602 109.59 52.0002 110.03C51.4202 110.03 50.8302 110.03 50.2502 110.03Z" fill="#EEEEEE"/>
<path d="M54.6499 109.05C42.4999 108.86 31.5599 105.12 21.8999 97.7201C21.5199 97.4301 21.2699 97.1501 21.3499 96.5801C22.2699 89.9101 24.5099 83.7601 28.6199 78.3701C30.8799 75.4001 33.5599 72.8501 36.8899 71.1001C37.6799 70.6801 37.6499 70.5001 36.9599 69.9801C32.5199 66.6401 29.4499 62.3301 28.2399 56.8601C26.7999 50.3601 28.3199 44.4601 32.4099 39.2801C37.2899 33.0901 43.9399 29.9601 51.6099 29.0901C59.2099 28.2201 66.3399 29.8601 72.6599 34.3201C78.0699 38.1401 81.6199 43.2601 82.4299 49.9101C83.1999 56.2801 81.2099 61.9001 76.9499 66.6901C75.8499 67.9301 74.6299 69.0801 73.2899 70.0701C72.7799 70.4501 72.7199 70.7101 73.3199 71.0501C81.2499 75.6101 85.5299 82.8101 87.8999 91.3601C88.3199 92.8801 88.6199 94.4301 88.8499 95.9901C88.9699 96.8101 88.7399 97.2301 88.1699 97.6701C80.3999 103.59 71.7299 107.34 61.9999 108.55C59.5499 108.86 57.1199 109.08 54.6499 109.05Z" fill="#FEFEFE"/>
<path d="M55.6 37.28C60.37 37.46 65.02 38.98 68.76 42.68C73.95 47.81 74.47 55.43 69.98 61.14C66.78 65.21 62.44 67.22 57.34 67.8C52.28 68.38 47.64 67.26 43.57 64.27C39.45 61.24 36.99 57.15 37.32 51.9C37.65 46.5 40.64 42.62 45.21 39.94C48.28 38.14 51.64 37.3 55.6 37.28Z" fill="#DADADA"/>
<path d="M47.4998 52.36C47.5198 51.4 48.3598 50.56 49.3398 50.54C50.2698 50.52 51.1798 51.42 51.1998 52.38C51.2098 53.31 50.2999 54.26 49.3799 54.26C48.3599 54.27 47.4798 53.38 47.4998 52.36Z" fill="#FEFEFE"/>
<path d="M55.1499 53.33C56.1399 53.35 56.9899 54.19 56.9899 55.16C56.9899 56.17 56.0599 57.06 55.0499 57.02C54.1299 56.98 53.2799 56.14 53.2799 55.26C53.2699 54.22 54.1499 53.32 55.1499 53.33Z" fill="#FDFDFD"/>
<path d="M60.9102 54.27C59.9402 54.27 59.2202 53.44 59.2402 52.35C59.2602 51.32 60.0801 50.52 61.0601 50.56C62.0301 50.6 62.7401 51.35 62.7601 52.34C62.7801 53.37 61.9102 54.27 60.9102 54.27Z" fill="#FEFEFE"/>
<path d="M0 57.53C0 55.7 0 53.86 0 52.03C0.25 51.48 0.0699973 50.89 0.129997 50.32C0.119997 43.56 2.04 37.25 4.94 31.26C11.12 18.49 20.78 9.30003 33.86 3.79003C39.1 1.58003 44.54 0.100027 50.31 0.160027C50.96 0.0900265 51.62 0.310029 52.25 0.0300293C54.17 0.0300293 56.08 0.0300293 58 0.0300293C58.55 0.280029 59.14 0.100027 59.71 0.160027C66.47 0.150027 72.78 2.07003 78.77 4.97003C91.54 11.15 100.73 20.81 106.24 33.89C108.45 39.13 109.93 44.57 109.87 50.34C109.94 50.99 109.72 51.65 110 52.28C110 54.2 110 56.11 110 58.03C109.75 58.58 109.93 59.17 109.87 59.74C109.88 66.5 107.97 72.81 105.06 78.8C98.88 91.56 89.21 100.75 76.14 106.27C70.9 108.48 65.46 109.96 59.69 109.9C59.04 109.97 58.38 109.75 57.75 110.03C55.83 110.03 53.92 110.03 52 110.03C51.45 109.78 50.86 109.96 50.29 109.9C43.56 109.92 37.28 108.01 31.31 105.13C18.64 99.03 9.48 89.48 3.92 76.55C1.71 71.39 0.190003 66.04 0.120003 60.36C0.120003 60.23 0.08 60.12 0 60.02C0 59.77 0 59.52 0 59.27C0.2 58.7 0.2 58.11 0 57.53Z" fill="#DADADA"/>
<path d="M50.2402 0.270027C50.2502 0.190027 50.2502 0.110029 50.2502 0.0300293C50.9202 0.0300293 51.5802 0.0300293 52.2502 0.0300293C51.6302 0.490029 50.9102 0.200027 50.2402 0.270027Z" fill="#EEEEEE"/>
<path d="M109.76 50.27C109.84 50.27 109.92 50.28 110 50.28C110 50.95 110 51.61 110 52.28C109.54 51.66 109.83 50.94 109.76 50.27Z" fill="#EEEEEE"/>
<path d="M59.76 109.79C59.75 109.87 59.75 109.95 59.75 110.03C59.08 110.03 58.42 110.03 57.75 110.03C58.37 109.57 59.09 109.86 59.76 109.79Z" fill="#EDEDED"/>
<path d="M59.75 0.0300293C59.75 0.110029 59.75 0.190027 59.76 0.270027C59.17 0.210027 58.54 0.470029 58 0.0300293C58.58 0.0300293 59.17 0.0300293 59.75 0.0300293Z" fill="#EEEEEE"/>
<path d="M0 50.28C0.08 50.28 0.159998 50.28 0.239998 50.27C0.189998 50.86 0.44 51.49 0 52.03C0 51.45 0 50.86 0 50.28Z" fill="#EEEEEE"/>
<path d="M0 57.53C0.38 58.11 0.39 58.7 0 59.28C0 58.7 0 58.11 0 57.53Z" fill="#EAEAEA"/>
<path d="M110 59.78C109.92 59.78 109.84 59.78 109.76 59.79C109.82 59.2 109.56 58.57 110 58.03C110 58.61 110 59.2 110 59.78Z" fill="#EEEEEE"/>
<path d="M50.2502 110.03C50.2502 109.95 50.2502 109.87 50.2402 109.79C50.8302 109.85 51.4602 109.59 52.0002 110.03C51.4202 110.03 50.8302 110.03 50.2502 110.03Z" fill="#EEEEEE"/>
<path d="M54.6499 109.05C42.4999 108.86 31.5599 105.12 21.8999 97.7201C21.5199 97.4301 21.2699 97.1501 21.3499 96.5801C22.2699 89.9101 24.5099 83.7601 28.6199 78.3701C30.8799 75.4001 33.5599 72.8501 36.8899 71.1001C37.6799 70.6801 37.6499 70.5001 36.9599 69.9801C32.5199 66.6401 29.4499 62.3301 28.2399 56.8601C26.7999 50.3601 28.3199 44.4601 32.4099 39.2801C37.2899 33.0901 43.9399 29.9601 51.6099 29.0901C59.2099 28.2201 66.3399 29.8601 72.6599 34.3201C78.0699 38.1401 81.6199 43.2601 82.4299 49.9101C83.1999 56.2801 81.2099 61.9001 76.9499 66.6901C75.8499 67.9301 74.6299 69.0801 73.2899 70.0701C72.7799 70.4501 72.7199 70.7101 73.3199 71.0501C81.2499 75.6101 85.5299 82.8101 87.8999 91.3601C88.3199 92.8801 88.6199 94.4301 88.8499 95.9901C88.9699 96.8101 88.7399 97.2301 88.1699 97.6701C80.3999 103.59 71.7299 107.34 61.9999 108.55C59.5499 108.86 57.1199 109.08 54.6499 109.05Z" fill="#FEFEFE"/>
<path d="M55.6 37.28C60.37 37.46 65.02 38.98 68.76 42.68C73.95 47.81 74.47 55.43 69.98 61.14C66.78 65.21 62.44 67.22 57.34 67.8C52.28 68.38 47.64 67.26 43.57 64.27C39.45 61.24 36.99 57.15 37.32 51.9C37.65 46.5 40.64 42.62 45.21 39.94C48.28 38.14 51.64 37.3 55.6 37.28Z" fill="#DADADA"/>
<path d="M47.4998 52.36C47.5198 51.4 48.3598 50.56 49.3398 50.54C50.2698 50.52 51.1798 51.42 51.1998 52.38C51.2098 53.31 50.2999 54.26 49.3799 54.26C48.3599 54.27 47.4798 53.38 47.4998 52.36Z" fill="#FEFEFE"/>
<path d="M55.1499 53.33C56.1399 53.35 56.9899 54.19 56.9899 55.16C56.9899 56.17 56.0599 57.06 55.0499 57.02C54.1299 56.98 53.2799 56.14 53.2799 55.26C53.2699 54.22 54.1499 53.32 55.1499 53.33Z" fill="#FDFDFD"/>
<path d="M60.9102 54.27C59.9402 54.27 59.2202 53.44 59.2402 52.35C59.2602 51.32 60.0801 50.52 61.0601 50.56C62.0301 50.6 62.7401 51.35 62.7601 52.34C62.7801 53.37 61.9102 54.27 60.9102 54.27Z" fill="#FEFEFE"/>
<path d="M0 57.53C0 55.7 0 53.86 0 52.03C0.25 51.48 0.0699973 50.89 0.129997 50.32C0.119997 43.56 2.04 37.25 4.94 31.26C11.12 18.49 20.78 9.30003 33.86 3.79003C39.1 1.58003 44.54 0.100027 50.31 0.160027C50.96 0.0900265 51.62 0.310029 52.25 0.0300293C54.17 0.0300293 56.08 0.0300293 58 0.0300293C58.55 0.280029 59.14 0.100027 59.71 0.160027C66.47 0.150027 72.78 2.07003 78.77 4.97003C91.54 11.15 100.73 20.81 106.24 33.89C108.45 39.13 109.93 44.57 109.87 50.34C109.94 50.99 109.72 51.65 110 52.28C110 54.2 110 56.11 110 58.03C109.75 58.58 109.93 59.17 109.87 59.74C109.88 66.5 107.97 72.81 105.06 78.8C98.88 91.56 89.21 100.75 76.14 106.27C70.9 108.48 65.46 109.96 59.69 109.9C59.04 109.97 58.38 109.75 57.75 110.03C55.83 110.03 53.92 110.03 52 110.03C51.45 109.78 50.86 109.96 50.29 109.9C43.56 109.92 37.28 108.01 31.31 105.13C18.64 99.03 9.48 89.48 3.92 76.55C1.71 71.39 0.190003 66.04 0.120003 60.36C0.120003 60.23 0.08 60.12 0 60.02C0 59.77 0 59.52 0 59.27C0.2 58.7 0.2 58.11 0 57.53Z" fill="#DADADA"/>
<path d="M50.2402 0.270027C50.2502 0.190027 50.2502 0.110029 50.2502 0.0300293C50.9202 0.0300293 51.5802 0.0300293 52.2502 0.0300293C51.6302 0.490029 50.9102 0.200027 50.2402 0.270027Z" fill="#EEEEEE"/>
<path d="M109.76 50.27C109.84 50.27 109.92 50.28 110 50.28C110 50.95 110 51.61 110 52.28C109.54 51.66 109.83 50.94 109.76 50.27Z" fill="#EEEEEE"/>
<path d="M59.76 109.79C59.75 109.87 59.75 109.95 59.75 110.03C59.08 110.03 58.42 110.03 57.75 110.03C58.37 109.57 59.09 109.86 59.76 109.79Z" fill="#EDEDED"/>
<path d="M59.75 0.0300293C59.75 0.110029 59.75 0.190027 59.76 0.270027C59.17 0.210027 58.54 0.470029 58 0.0300293C58.58 0.0300293 59.17 0.0300293 59.75 0.0300293Z" fill="#EEEEEE"/>
<path d="M0 50.28C0.08 50.28 0.159998 50.28 0.239998 50.27C0.189998 50.86 0.44 51.49 0 52.03C0 51.45 0 50.86 0 50.28Z" fill="#EEEEEE"/>
<path d="M0 57.53C0.38 58.11 0.39 58.7 0 59.28C0 58.7 0 58.11 0 57.53Z" fill="#EAEAEA"/>
<path d="M110 59.78C109.92 59.78 109.84 59.78 109.76 59.79C109.82 59.2 109.56 58.57 110 58.03C110 58.61 110 59.2 110 59.78Z" fill="#EEEEEE"/>
<path d="M50.2502 110.03C50.2502 109.95 50.2502 109.87 50.2402 109.79C50.8302 109.85 51.4602 109.59 52.0002 110.03C51.4202 110.03 50.8302 110.03 50.2502 110.03Z" fill="#EEEEEE"/>
<path d="M54.6499 109.05C42.4999 108.86 31.5599 105.12 21.8999 97.7201C21.5199 97.4301 21.2699 97.1501 21.3499 96.5801C22.2699 89.9101 24.5099 83.7601 28.6199 78.3701C30.8799 75.4001 33.5599 72.8501 36.8899 71.1001C37.6799 70.6801 37.6499 70.5001 36.9599 69.9801C32.5199 66.6401 29.4499 62.3301 28.2399 56.8601C26.7999 50.3601 28.3199 44.4601 32.4099 39.2801C37.2899 33.0901 43.9399 29.9601 51.6099 29.0901C59.2099 28.2201 66.3399 29.8601 72.6599 34.3201C78.0699 38.1401 81.6199 43.2601 82.4299 49.9101C83.1999 56.2801 81.2099 61.9001 76.9499 66.6901C75.8499 67.9301 74.6299 69.0801 73.2899 70.0701C72.7799 70.4501 72.7199 70.7101 73.3199 71.0501C81.2499 75.6101 85.5299 82.8101 87.8999 91.3601C88.3199 92.8801 88.6199 94.4301 88.8499 95.9901C88.9699 96.8101 88.7399 97.2301 88.1699 97.6701C80.3999 103.59 71.7299 107.34 61.9999 108.55C59.5499 108.86 57.1199 109.08 54.6499 109.05Z" fill="#FEFEFE"/>
<path d="M55.6 37.28C60.37 37.46 65.02 38.98 68.76 42.68C73.95 47.81 74.47 55.43 69.98 61.14C66.78 65.21 62.44 67.22 57.34 67.8C52.28 68.38 47.64 67.26 43.57 64.27C39.45 61.24 36.99 57.15 37.32 51.9C37.65 46.5 40.64 42.62 45.21 39.94C48.28 38.14 51.64 37.3 55.6 37.28Z" fill="#DADADA"/>
<path d="M47.4998 52.36C47.5198 51.4 48.3598 50.56 49.3398 50.54C50.2698 50.52 51.1798 51.42 51.1998 52.38C51.2098 53.31 50.2999 54.26 49.3799 54.26C48.3599 54.27 47.4798 53.38 47.4998 52.36Z" fill="#FEFEFE"/>
<path d="M55.1499 53.33C56.1399 53.35 56.9899 54.19 56.9899 55.16C56.9899 56.17 56.0599 57.06 55.0499 57.02C54.1299 56.98 53.2799 56.14 53.2799 55.26C53.2699 54.22 54.1499 53.32 55.1499 53.33Z" fill="#FDFDFD"/>
<path d="M60.9102 54.27C59.9402 54.27 59.2202 53.44 59.2402 52.35C59.2602 51.32 60.0801 50.52 61.0601 50.56C62.0301 50.6 62.7401 51.35 62.7601 52.34C62.7801 53.37 61.9102 54.27 60.9102 54.27Z" fill="#FEFEFE"/>
<path d="M53.4876 32.769C52.2307 32.769 50.9758 32.7646 49.7188 32.7723C49.3514 32.7756 49.0015 32.7283 48.8805 32.3221C48.7649 31.9344 48.9274 31.6248 49.2228 31.3338C50.6946 29.8822 52.1369 28.4009 53.6076 26.9493C53.8867 26.6726 53.8114 26.4541 53.6501 26.1829C52.9175 24.9465 52.1892 23.7068 51.4588 22.4671C49.6284 19.3497 47.8001 16.2313 45.9631 13.1194C45.7473 12.7527 45.6382 12.387 45.9162 12.0346C46.2422 11.6217 46.6183 11.7831 46.9846 12.0137C49.1846 13.3994 51.3879 14.7775 53.5879 16.1632C55.6233 17.4435 57.6587 18.7282 59.6909 20.0141C60.0397 20.2359 60.4028 20.3336 60.8181 20.3314C63.1402 20.316 65.4634 20.3314 67.7856 20.3171C68.1726 20.316 68.54 20.3468 68.6948 20.7454C68.8409 21.122 68.6828 21.4327 68.3884 21.7336C65.8385 24.3426 63.3092 26.9768 60.7647 29.5923C59.813 30.5707 58.8056 31.4941 57.9138 32.5384C57.7383 32.7426 57.5508 32.7821 57.3131 32.7799C56.0376 32.7734 54.7632 32.7766 53.4876 32.7766C53.4876 32.7734 53.4876 32.769 53.4876 32.769Z" fill="white"/>
</svg>
